<?xml version="1.0" encoding="utf-8"?>
<!-- Generator: Adobe Illustrator 18.1.1, SVG Export Plug-In . SVG Version: 6.00 Build 0)  -->
<svg version="1.1" id="Layer_1" xmlns="http://www.w3.org/2000/svg" xmlns:xlink="http://www.w3.org/1999/xlink" x="0px" y="0px"
	 viewBox="0 0 960 560" enable-background="new 0 0 960 560" xml:space="preserve">
<circle fill="#4D4F51" cx="480" cy="280" r="280"/>
<g>
	<path fill="#FFFFFF" d="M608.4,173.2H536l-10.3-25.8h-91.3L424,173.2h-72.4c-26.7,0-48.2,21.5-48.2,48.2v125.8
		c0,26.7,21.5,48.2,48.2,48.2h255.9c26.7,0,48.2-21.5,48.2-48.2V221.4C656.6,194.7,634.2,173.2,608.4,173.2z M480,378.2
		c-49.1,0-88.7-39.6-88.7-88.7s39.6-88.7,88.7-88.7s88.7,39.6,88.7,88.7S529.1,378.2,480,378.2z"/>
	<circle fill="#FFFFFF" cx="480" cy="288.6" r="47.4"/>
</g>
</svg>
